<svg width="375" height="145" viewBox="0 0 375 145" fill="none" xmlns="http://www.w3.org/2000/svg">
<path d="M541.5 204.5C541.5 260.716 501.94 311.706 437.773 348.67C373.62 385.626 284.959 408.5 187 408.5C89.041 408.5 0.380341 385.626 -63.7733 348.67C-127.94 311.706 -167.5 260.716 -167.5 204.5C-167.5 148.284 -127.94 97.2938 -63.7733 60.3299C0.380341 23.3738 89.041 0.5 187 0.5C284.959 0.5 373.62 23.3738 437.773 60.3299C501.94 97.2938 541.5 148.284 541.5 204.5Z" stroke="black" stroke-opacity="0.2"/>
<path d="M450.5 204.5C450.5 246.358 421.125 284.347 373.426 311.901C325.74 339.447 259.83 356.5 187 356.5C114.17 356.5 48.2597 339.447 0.573906 311.901C-47.125 284.347 -76.5 246.358 -76.5 204.5C-76.5 162.642 -47.125 124.653 0.573906 97.0992C48.2597 69.5534 114.17 52.5 187 52.5C259.83 52.5 325.74 69.5534 373.426 97.0992C421.125 124.653 450.5 162.642 450.5 204.5Z" stroke="black" stroke-opacity="0.2"/>
<path d="M350.5 204.5C350.5 230.341 332.319 253.831 302.716 270.888C273.126 287.938 232.216 298.5 187 298.5C141.784 298.5 100.874 287.938 71.2841 270.888C41.6813 253.831 23.5 230.341 23.5 204.5C23.5 178.659 41.6813 155.169 71.2841 138.112C100.874 121.062 141.784 110.5 187 110.5C232.216 110.5 273.126 121.062 302.716 138.112C332.319 155.169 350.5 178.659 350.5 204.5Z" stroke="black" stroke-opacity="0.2"/>
</svg>
